HIERARCHY
ROOT Hips
{
	OFFSET 0.000000 0.000000 0.000000
	CHANNELS 6 Xposition Yposition Zposition Zrotation Yrotation Xrotation 
	JOINT LHipJoint
	{
		OFFSET 0.000000 0.000000 0.000000
		CHANNELS 3 Zrotation Yrotation Xrotation
		JOINT LeftUpLeg
		{
			OFFSET 1.363060 -1.794630 0.839290
			CHANNELS 3 Zrotation Yrotation Xrotation
			JOINT LeftLeg
			{
				OFFSET 2.448110 -6.726130 0.000000
				CHANNELS 3 Zrotation Yrotation Xrotation
				JOINT LeftFoot
				{
					OFFSET 2.562200 -7.039590 0.000000
					CHANNELS 3 Zrotation Yrotation Xrotation
					JOINT LeftToeBase
					{
						OFFSET 0.157640 -0.433110 2.322550
						CHANNELS 3 Zrotation Yrotation Xrotation
						End Site
						{
							OFFSET 0.000000 0.000000 0.000000
						}
					}
				}
			}
		}
	}
	JOINT RHipJoint
	{
		OFFSET 0.000000 0.000000 0.000000
		CHANNELS 3 Zrotation Yrotation Xrotation
		JOINT RightUpLeg
		{
			OFFSET -1.305520 -1.794630 0.839290
			CHANNELS 3 Zrotation Yrotation Xrotation
			JOINT RightLeg
			{
				OFFSET -2.542530 -6.985550 0.000000
				CHANNELS 3 Zrotation Yrotation Xrotation
				JOINT RightFoot
				{
					OFFSET -2.568260 -7.056230 0.000000
					CHANNELS 3 Zrotation Yrotation Xrotation
					JOINT RightToeBase
					{
						OFFSET -0.164730 -0.452590 2.363150
						CHANNELS 3 Zrotation Yrotation Xrotation
						End Site
						{
							OFFSET 0.000000 0.000000 0.000000
						}
					}
				}
			}
		}
	}
	JOINT LowerBack
	{
		OFFSET 0.000000 0.000000 0.000000
		CHANNELS 3 Zrotation Yrotation Xrotation
		JOINT Spine
		{
			OFFSET 0.028270 2.035590 -0.193380
			CHANNELS 3 Zrotation Yrotation Xrotation
			JOINT Spine1
			{
				OFFSET 0.056720 2.048850 -0.042750
				CHANNELS 3 Zrotation Yrotation Xrotation
				JOINT Neck
				{
					OFFSET 0.000000 0.000000 0.000000
					CHANNELS 3 Zrotation Yrotation Xrotation
					JOINT Neck1
					{
						OFFSET -0.054170 1.746240 0.172020
						CHANNELS 3 Zrotation Yrotation Xrotation
						JOINT Head
						{
							OFFSET 0.104070 1.761360 -0.123970
							CHANNELS 3 Zrotation Yrotation Xrotation
							End Site
							{
								OFFSET 0.000000 0.000000 0.000000
							}
						}
					}
				}
				JOINT LeftShoulder
				{
					OFFSET 0.000000 0.000000 0.000000
					CHANNELS 3 Zrotation Yrotation Xrotation
					JOINT LeftArm
					{
						OFFSET 3.362410 1.200890 -0.311210
						CHANNELS 3 Zrotation Yrotation Xrotation
						JOINT LeftForeArm
						{
							OFFSET 4.983000 -0.000000 -0.000000
							CHANNELS 3 Zrotation Yrotation Xrotation
							JOINT LeftHand
							{
								OFFSET 3.483560 -0.000000 -0.000000
								CHANNELS 3 Zrotation Yrotation Xrotation
								JOINT LeftFingerBase
								{
									OFFSET 0.000000 0.000000 0.000000
									CHANNELS 3 Zrotation Yrotation Xrotation
									JOINT LeftHandIndex1
									{
										OFFSET 0.715260 -0.000000 -0.000000
										CHANNELS 3 Zrotation Yrotation Xrotation
										End Site
										{
											OFFSET 0.000000 0.000000 0.000000
										}
									}
								}
								JOINT LThumb
								{
									OFFSET 0.000000 0.000000 0.000000
									CHANNELS 3 Zrotation Yrotation Xrotation
									End Site
									{
										OFFSET 0.000000 0.000000 0.000000
									}
								}
							}
						}
					}
				}
				JOINT RightShoulder
				{
					OFFSET 0.000000 0.000000 0.000000
					CHANNELS 3 Zrotation Yrotation Xrotation
					JOINT RightArm
					{
						OFFSET -3.136600 1.374050 -0.404650
						CHANNELS 3 Zrotation Yrotation Xrotation
						JOINT RightForeArm
						{
							OFFSET -5.241900 -0.000000 -0.000000
							CHANNELS 3 Zrotation Yrotation Xrotation
							JOINT RightHand
							{
								OFFSET -3.444170 -0.000000 -0.000000
								CHANNELS 3 Zrotation Yrotation Xrotation
								JOINT RightFingerBase
								{
									OFFSET 0.000000 0.000000 0.000000
									CHANNELS 3 Zrotation Yrotation Xrotation
									JOINT RightHandIndex1
									{
										OFFSET -0.622530 -0.000000 -0.000000
										CHANNELS 3 Zrotation Yrotation Xrotation
										End Site
										{
											OFFSET 0.000000 0.000000 0.000000
										}
									}
								}
								JOINT RThumb
								{
									OFFSET 0.000000 0.000000 0.000000
									CHANNELS 3 Zrotation Yrotation Xrotation
									End Site
									{
										OFFSET 0.000000 0.000000 0.000000
									}
								}
							}
						}
					}
				}
			}
		}
	}
}
MOTION
Frames: 4
Frame Time: 0.008333
-0.730613 17.194004 -15.329460 -1.254394 -7.668300 20.512510 -1.222375 -3.526104 -4.628786 -17.760914 2.374571 -47.205321 -1.702904 3.831355 8.370871 0.924718 -4.222719 1.628148 0.004900 -0.452400 -1.243000 0.091624 1.002928 -1.220364 21.347429 -4.645730 -9.191461 -0.742953 -7.487314 21.168731 -2.256974 23.511412 -14.399926 -0.023000 0.978800 -2.690500 2.153518 3.666579 -7.787272 0.232613 3.954175 -10.128450 -1.088992 2.263464 -0.098547 -1.265421 0.686565 -6.530854 1.190690 0.923276 8.248347 -0.886200 0.574900 1.937500 13.147084 8.144249 1.040658 -101.866191 20.922803 -2.557348 4.968712 -14.502239 -0.174008 -0.909219 -1.091040 28.239360 17.561242 -18.134754 -5.271400 -7.125000 0.000000 0.000000 -6.616800 12.635300 5.043700 -13.000930 -7.471882 -0.459876 94.655334 12.311046 37.518623 -34.001245 50.423649 -14.200501 0.074941 -1.827644 -15.873223 -21.008766 -32.093171 10.729100 7.125000 0.000000 0.000000 12.760900 -61.486000 -5.168400
-0.726370 17.179973 -15.204707 -1.273126 -7.738334 20.532900 -1.230274 -3.520070 -4.633008 -17.636990 2.252538 -47.069746 -1.720952 3.666778 7.923915 0.963502 -4.536987 1.469240 0.003465 -0.052483 -0.144211 0.091089 0.981735 -1.202985 21.235181 -4.608217 -8.708076 -0.736193 -7.454543 21.109728 -2.246189 23.368593 -14.329049 -0.046540 1.348003 -3.707456 2.111994 3.681415 -7.820343 0.203601 3.977117 -10.124577 -1.110905 2.273413 -0.096517 -1.335473 0.747335 -6.393255 1.300263 0.984804 8.090589 -0.825941 0.604976 1.839088 13.146009 8.133209 1.044888 -101.905885 20.910234 -4.083283 4.826833 -14.186524 -0.128363 -0.946020 -1.092224 29.298499 17.649631 -18.492398 -5.402757 -7.125000 0.000000 0.000000 -6.567116 12.284323 5.053212 -13.007677 -7.482824 -0.461914 94.651296 12.423225 37.573589 -34.173972 50.543387 -14.312392 0.079390 -1.828991 -15.886696 -21.028291 -32.244512 10.788402 7.125000 0.000000 0.000000 12.836941 -61.638134 -5.246247
-0.722321 17.166042 -15.079654 -1.285912 -7.813284 20.550059 -1.237967 -3.513078 -4.635932 -17.523924 2.127422 -46.938127 -1.737461 3.515787 7.513427 1.000120 -4.836247 1.339084 0.002526 0.316223 0.868840 0.090377 0.960972 -1.185636 21.115030 -4.569467 -8.230099 -0.730833 -7.424774 21.059665 -2.236359 23.226964 -14.262684 -0.075189 1.746115 -4.805055 2.061571 3.695627 -7.850986 0.173887 4.001125 -10.126205 -1.132493 2.283458 -0.101944 -1.382970 0.790534 -6.298949 1.391970 1.026961 7.983266 -0.777827 0.626046 1.772164 13.144259 8.123947 1.046956 -101.937989 20.913778 -5.618016 4.684369 -13.867392 -0.082824 -0.982265 -1.093285 30.361000 17.742112 -18.840564 -5.532602 -7.125000 0.000000 0.000000 -6.514990 11.942384 5.059372 -13.013015 -7.489968 -0.464468 94.647625 12.517226 37.626813 -34.340069 50.657439 -14.419506 0.083822 -1.830446 -15.895864 -21.038820 -32.404775 10.845432 7.125000 0.000000 0.000000 12.929695 -61.796689 -5.333364
-0.719718 17.152859 -14.952354 -1.254301 -7.924929 20.543095 -1.244120 -3.498934 -4.629158 -17.491935 1.979290 -46.836055 -1.742472 3.466244 7.375232 1.020557 -5.023444 1.423610 0.005290 0.451885 1.241710 0.088346 0.943418 -1.168509 20.935874 -4.521482 -7.792497 -0.735929 -7.417421 21.076357 -2.233668 23.094215 -14.230012 -0.141984 2.360072 -6.504783 1.944702 3.705185 -7.863499 0.138932 4.033094 -10.168901 -1.151649 2.294225 -0.163052 -1.262053 0.702539 -6.527903 1.350276 0.924476 8.252524 -0.820391 0.579869 1.940346 13.137465 8.127970 1.032884 -101.913426 21.037634 -7.218432 4.537534 -13.522746 -0.038078 -1.014356 -1.093418 31.448613 17.865144 -19.117962 -5.651153 -7.125000 0.000000 0.000000 -6.444636 11.667926 5.040508 -13.007821 -7.468748 -0.470878 94.646698 12.475501 37.667031 -34.456662 50.729036 -14.490949 0.088121 -1.832718 -15.872892 -20.982178 -32.631656 10.885498 7.125000 0.000000 0.000000 13.147242 -62.003184 -5.489697
